<mxfile host="app.diagrams.net" agent="Mozilla/5.0 (X11; Linux x86_64) AppleWebKit/537.36 (KHTML, like Gecko) QtWebEngine/6.8.2 Chrome/122.0.6261.171 Safari/537.36" version="26.0.16">
  <diagram name="Page-1" id="u1mcA07w7LvZzqI7OhWi">
    <mxGraphModel dx="1434" dy="762" grid="1" gridSize="10" guides="1" tooltips="1" connect="1" arrows="1" fold="1" page="1" pageScale="1" pageWidth="850" pageHeight="1100" math="0" shadow="0">
      <root>
        <mxCell id="0" />
        <mxCell id="1" parent="0" />
        <mxCell id="7rZDa8M_wtfSVnTw2A_I-1" value="" style="ellipse;html=1;shape=startState;fillColor=#000000;strokeColor=#ff0000;" parent="1" vertex="1">
          <mxGeometry x="170" y="180" width="30" height="30" as="geometry" />
        </mxCell>
        <mxCell id="7rZDa8M_wtfSVnTw2A_I-2" value="" style="edgeStyle=orthogonalEdgeStyle;html=1;verticalAlign=bottom;endArrow=open;endSize=8;strokeColor=#330000;rounded=0;" parent="1" source="7rZDa8M_wtfSVnTw2A_I-1" edge="1">
          <mxGeometry relative="1" as="geometry">
            <mxPoint x="270" y="250" as="targetPoint" />
          </mxGeometry>
        </mxCell>
        <mxCell id="7rZDa8M_wtfSVnTw2A_I-26" value="Start" style="edgeLabel;html=1;align=center;verticalAlign=middle;resizable=0;points=[];" parent="7rZDa8M_wtfSVnTw2A_I-2" vertex="1" connectable="0">
          <mxGeometry x="-0.7757" y="-1" relative="1" as="geometry">
            <mxPoint as="offset" />
          </mxGeometry>
        </mxCell>
        <mxCell id="7rZDa8M_wtfSVnTw2A_I-3" value="" style="ellipse;html=1;shape=endState;fillColor=#000000;strokeColor=#ff0000;" parent="1" vertex="1">
          <mxGeometry x="155" y="810" width="30" height="30" as="geometry" />
        </mxCell>
        <mxCell id="7rZDa8M_wtfSVnTw2A_I-15" style="edgeStyle=orthogonalEdgeStyle;rounded=0;orthogonalLoop=1;jettySize=auto;html=1;exitX=0.5;exitY=1;exitDx=0;exitDy=0;entryX=0.5;entryY=0;entryDx=0;entryDy=0;" parent="1" source="7rZDa8M_wtfSVnTw2A_I-4" target="7rZDa8M_wtfSVnTw2A_I-5" edge="1">
          <mxGeometry relative="1" as="geometry" />
        </mxCell>
        <mxCell id="7rZDa8M_wtfSVnTw2A_I-4" value="Eingabe einer Zahl" style="rounded=1;whiteSpace=wrap;html=1;" parent="1" vertex="1">
          <mxGeometry x="220" y="250" width="100" height="40" as="geometry" />
        </mxCell>
        <mxCell id="7rZDa8M_wtfSVnTw2A_I-16" style="edgeStyle=orthogonalEdgeStyle;rounded=0;orthogonalLoop=1;jettySize=auto;html=1;exitX=0.5;exitY=1;exitDx=0;exitDy=0;entryX=0.5;entryY=0;entryDx=0;entryDy=0;" parent="1" source="7rZDa8M_wtfSVnTw2A_I-5" target="7rZDa8M_wtfSVnTw2A_I-6" edge="1">
          <mxGeometry relative="1" as="geometry" />
        </mxCell>
        <mxCell id="7rZDa8M_wtfSVnTw2A_I-5" value="Ist die Eingabe eine ganze Zahl?" style="rounded=1;whiteSpace=wrap;html=1;" parent="1" vertex="1">
          <mxGeometry x="220" y="340" width="100" height="40" as="geometry" />
        </mxCell>
        <mxCell id="7rZDa8M_wtfSVnTw2A_I-17" style="edgeStyle=orthogonalEdgeStyle;rounded=0;orthogonalLoop=1;jettySize=auto;html=1;exitX=0;exitY=0.5;exitDx=0;exitDy=0;entryX=0.5;entryY=0;entryDx=0;entryDy=0;" parent="1" source="7rZDa8M_wtfSVnTw2A_I-6" target="7rZDa8M_wtfSVnTw2A_I-7" edge="1">
          <mxGeometry relative="1" as="geometry" />
        </mxCell>
        <mxCell id="7rZDa8M_wtfSVnTw2A_I-28" value="Ja" style="edgeLabel;html=1;align=center;verticalAlign=middle;resizable=0;points=[];" parent="7rZDa8M_wtfSVnTw2A_I-17" vertex="1" connectable="0">
          <mxGeometry x="-0.6428" y="2" relative="1" as="geometry">
            <mxPoint as="offset" />
          </mxGeometry>
        </mxCell>
        <mxCell id="hQ93UAaIvLA_gx9WkFvK-4" style="edgeStyle=orthogonalEdgeStyle;rounded=0;orthogonalLoop=1;jettySize=auto;html=1;exitX=1;exitY=0.5;exitDx=0;exitDy=0;entryX=0.5;entryY=0;entryDx=0;entryDy=0;" edge="1" parent="1" source="7rZDa8M_wtfSVnTw2A_I-6" target="hQ93UAaIvLA_gx9WkFvK-3">
          <mxGeometry relative="1" as="geometry" />
        </mxCell>
        <mxCell id="hQ93UAaIvLA_gx9WkFvK-8" value="Nein" style="edgeLabel;html=1;align=center;verticalAlign=middle;resizable=0;points=[];" vertex="1" connectable="0" parent="hQ93UAaIvLA_gx9WkFvK-4">
          <mxGeometry x="-0.5733" y="-3" relative="1" as="geometry">
            <mxPoint as="offset" />
          </mxGeometry>
        </mxCell>
        <mxCell id="7rZDa8M_wtfSVnTw2A_I-6" value="" style="rhombus;whiteSpace=wrap;html=1;" parent="1" vertex="1">
          <mxGeometry x="255" y="440" width="30" height="30" as="geometry" />
        </mxCell>
        <mxCell id="7rZDa8M_wtfSVnTw2A_I-24" style="edgeStyle=orthogonalEdgeStyle;rounded=0;orthogonalLoop=1;jettySize=auto;html=1;exitX=1;exitY=0.5;exitDx=0;exitDy=0;entryX=0.5;entryY=0;entryDx=0;entryDy=0;" parent="1" source="7rZDa8M_wtfSVnTw2A_I-7" target="7rZDa8M_wtfSVnTw2A_I-13" edge="1">
          <mxGeometry relative="1" as="geometry" />
        </mxCell>
        <mxCell id="7rZDa8M_wtfSVnTw2A_I-7" value="Ist die Zahl gerade?" style="rounded=1;whiteSpace=wrap;html=1;" parent="1" vertex="1">
          <mxGeometry x="120" y="520" width="100" height="40" as="geometry" />
        </mxCell>
        <mxCell id="7rZDa8M_wtfSVnTw2A_I-21" style="edgeStyle=orthogonalEdgeStyle;rounded=0;orthogonalLoop=1;jettySize=auto;html=1;exitX=0.5;exitY=1;exitDx=0;exitDy=0;entryX=0.5;entryY=0;entryDx=0;entryDy=0;" parent="1" source="7rZDa8M_wtfSVnTw2A_I-8" target="7rZDa8M_wtfSVnTw2A_I-3" edge="1">
          <mxGeometry relative="1" as="geometry">
            <mxPoint x="170" y="810" as="targetPoint" />
          </mxGeometry>
        </mxCell>
        <mxCell id="7rZDa8M_wtfSVnTw2A_I-27" value="Ende" style="edgeLabel;html=1;align=center;verticalAlign=middle;resizable=0;points=[];" parent="7rZDa8M_wtfSVnTw2A_I-21" vertex="1" connectable="0">
          <mxGeometry x="0.3835" y="1" relative="1" as="geometry">
            <mxPoint as="offset" />
          </mxGeometry>
        </mxCell>
        <mxCell id="7rZDa8M_wtfSVnTw2A_I-8" value="Die Zahl ist gerade" style="rounded=1;whiteSpace=wrap;html=1;" parent="1" vertex="1">
          <mxGeometry x="120" y="670" width="100" height="40" as="geometry" />
        </mxCell>
        <mxCell id="7rZDa8M_wtfSVnTw2A_I-25" style="edgeStyle=orthogonalEdgeStyle;rounded=0;orthogonalLoop=1;jettySize=auto;html=1;exitX=0;exitY=0.5;exitDx=0;exitDy=0;entryX=0.5;entryY=0;entryDx=0;entryDy=0;" parent="1" source="7rZDa8M_wtfSVnTw2A_I-13" target="7rZDa8M_wtfSVnTw2A_I-8" edge="1">
          <mxGeometry relative="1" as="geometry" />
        </mxCell>
        <mxCell id="7rZDa8M_wtfSVnTw2A_I-30" value="Ja" style="edgeLabel;html=1;align=center;verticalAlign=middle;resizable=0;points=[];" parent="7rZDa8M_wtfSVnTw2A_I-25" vertex="1" connectable="0">
          <mxGeometry x="-0.4224" relative="1" as="geometry">
            <mxPoint as="offset" />
          </mxGeometry>
        </mxCell>
        <mxCell id="hQ93UAaIvLA_gx9WkFvK-6" style="edgeStyle=orthogonalEdgeStyle;rounded=0;orthogonalLoop=1;jettySize=auto;html=1;exitX=1;exitY=0.5;exitDx=0;exitDy=0;entryX=0.5;entryY=0;entryDx=0;entryDy=0;" edge="1" parent="1" source="7rZDa8M_wtfSVnTw2A_I-13" target="hQ93UAaIvLA_gx9WkFvK-2">
          <mxGeometry relative="1" as="geometry" />
        </mxCell>
        <mxCell id="hQ93UAaIvLA_gx9WkFvK-9" value="Nein" style="edgeLabel;html=1;align=center;verticalAlign=middle;resizable=0;points=[];" vertex="1" connectable="0" parent="hQ93UAaIvLA_gx9WkFvK-6">
          <mxGeometry x="-0.44" y="3" relative="1" as="geometry">
            <mxPoint as="offset" />
          </mxGeometry>
        </mxCell>
        <mxCell id="7rZDa8M_wtfSVnTw2A_I-13" value="" style="rhombus;whiteSpace=wrap;html=1;" parent="1" vertex="1">
          <mxGeometry x="255" y="590" width="30" height="30" as="geometry" />
        </mxCell>
        <mxCell id="hQ93UAaIvLA_gx9WkFvK-1" value="&lt;h3 data-end=&quot;141&quot; data-start=&quot;90&quot;&gt;&lt;font style=&quot;font-size: 10px;&quot;&gt;&lt;strong style=&quot;&quot; data-end=&quot;139&quot; data-start=&quot;94&quot;&gt;Testfall 1: Gültige gerade Zahl (z. B. 4)&lt;br&gt;&lt;/strong&gt;&lt;strong style=&quot;background-color: transparent;&quot; data-end=&quot;154&quot; data-start=&quot;142&quot;&gt;Eingabe:&lt;/strong&gt;&lt;span style=&quot;background-color: transparent; font-weight: normal;&quot;&gt; &lt;/span&gt;&lt;code style=&quot;background-color: transparent; font-weight: normal;&quot; data-end=&quot;158&quot; data-start=&quot;155&quot;&gt;4&lt;/code&gt;&lt;/font&gt;&lt;/h3&gt;&lt;p data-end=&quot;392&quot; data-start=&quot;142&quot;&gt;&lt;font style=&quot;font-size: 10px;&quot;&gt;&lt;strong data-end=&quot;183&quot; data-start=&quot;161&quot;&gt;Erwartete Ausgabe:&lt;/strong&gt; &lt;code data-end=&quot;208&quot; data-start=&quot;184&quot;&gt;&quot;Die Zahl ist gerade.&quot;&lt;/code&gt;&lt;br data-end=&quot;211&quot; data-start=&quot;208&quot;&gt;&lt;strong data-end=&quot;226&quot; data-start=&quot;211&quot;&gt;Begründung:&lt;/strong&gt; Dieser Test überprüft, ob der Algorithmus eine &lt;strong data-end=&quot;289&quot; data-start=&quot;274&quot;&gt;gerade Zahl&lt;/strong&gt; korrekt verarbeitet. Eine gerade Zahl sollte als &quot;gerade&quot; erkannt und entsprechend ausgegeben werden.&lt;/font&gt;&lt;/p&gt;&lt;h3 data-end=&quot;447&quot; data-start=&quot;394&quot;&gt;&lt;font style=&quot;font-size: 10px;&quot;&gt;&lt;strong data-end=&quot;445&quot; data-start=&quot;398&quot;&gt;Testfall 2: Gültige ungerade Zahl (z. B. 7)&lt;br&gt;&lt;/strong&gt;&lt;strong style=&quot;background-color: transparent;&quot; data-end=&quot;460&quot; data-start=&quot;448&quot;&gt;Eingabe:&lt;/strong&gt;&lt;span style=&quot;background-color: transparent; font-weight: normal;&quot;&gt; &lt;/span&gt;&lt;code style=&quot;background-color: transparent; font-weight: normal;&quot; data-end=&quot;464&quot; data-start=&quot;461&quot;&gt;7&lt;/code&gt;&lt;/font&gt;&lt;/h3&gt;&lt;p data-end=&quot;714&quot; data-start=&quot;448&quot;&gt;&lt;font style=&quot;font-size: 10px;&quot;&gt;&lt;strong data-end=&quot;489&quot; data-start=&quot;467&quot;&gt;Erwartete Ausgabe:&lt;/strong&gt; &lt;code data-end=&quot;516&quot; data-start=&quot;490&quot;&gt;&quot;Die Zahl ist ungerade.&quot;&lt;/code&gt;&lt;br data-end=&quot;519&quot; data-start=&quot;516&quot;&gt;&lt;strong data-end=&quot;534&quot; data-start=&quot;519&quot;&gt;Begründung:&lt;/strong&gt; Hier wird getestet, ob das Programm auch eine &lt;strong data-end=&quot;598&quot; data-start=&quot;581&quot;&gt;ungerade Zahl&lt;/strong&gt; richtig erkennt und ausgibt. Der Algorithmus sollte den Unterschied zwischen geraden und ungeraden Zahlen erkennen und den Nutzer auf eine neue Eingabe anfordern.&lt;/font&gt;&lt;/p&gt;&lt;h3 data-end=&quot;769&quot; data-start=&quot;716&quot;&gt;&lt;font style=&quot;font-size: 10px;&quot;&gt;&lt;strong data-end=&quot;767&quot; data-start=&quot;720&quot;&gt;Testfall 3: Ungültige Eingabe (z. B. &quot;abc&quot;)&lt;br&gt;&lt;/strong&gt;&lt;strong style=&quot;background-color: transparent;&quot; data-end=&quot;782&quot; data-start=&quot;770&quot;&gt;Eingabe:&lt;/strong&gt;&lt;span style=&quot;background-color: transparent; font-weight: normal;&quot;&gt; &lt;/span&gt;&lt;code style=&quot;background-color: transparent; font-weight: normal;&quot; data-end=&quot;790&quot; data-start=&quot;783&quot;&gt;&quot;abc&quot;&lt;/code&gt;&lt;/font&gt;&lt;/h3&gt;&lt;p data-end=&quot;1173&quot; data-start=&quot;770&quot;&gt;&lt;font style=&quot;font-size: 10px;&quot;&gt;&lt;strong style=&quot;&quot; data-end=&quot;815&quot; data-start=&quot;793&quot;&gt;Erwartete Ausgabe:&lt;/strong&gt; &lt;code style=&quot;&quot; data-end=&quot;875&quot; data-start=&quot;816&quot;&gt;&quot;Ungültige Eingabe. Bitte geben Sie eine ganze Zahl ein.&quot;&lt;/code&gt;&lt;br data-end=&quot;878&quot; data-start=&quot;875&quot;&gt;&lt;strong style=&quot;&quot; data-end=&quot;893&quot; data-start=&quot;878&quot;&gt;Begründung:&lt;/strong&gt; Dieser Testfall stellt sicher, dass das &lt;strong style=&quot;&quot; data-end=&quot;952&quot; data-start=&quot;934&quot;&gt;Fehlerhandling&lt;/strong&gt; funktioniert, wenn der Benutzer eine ungültige Eingabe wie ein Wort oder einen nicht-numerischen Wert eingibt. Der Algorithmus sollte eine Fehlermeldung ausgeben und den Benutzer auffordern, eine gültige Zahl einzugeben.&lt;/font&gt;&lt;/p&gt;" style="text;html=1;align=center;verticalAlign=middle;whiteSpace=wrap;rounded=0;" vertex="1" parent="1">
          <mxGeometry x="440" y="410" width="300" height="30" as="geometry" />
        </mxCell>
        <mxCell id="hQ93UAaIvLA_gx9WkFvK-7" style="edgeStyle=orthogonalEdgeStyle;rounded=0;orthogonalLoop=1;jettySize=auto;html=1;exitX=1;exitY=0.5;exitDx=0;exitDy=0;entryX=1;entryY=0.5;entryDx=0;entryDy=0;" edge="1" parent="1" source="hQ93UAaIvLA_gx9WkFvK-2" target="7rZDa8M_wtfSVnTw2A_I-4">
          <mxGeometry relative="1" as="geometry" />
        </mxCell>
        <mxCell id="hQ93UAaIvLA_gx9WkFvK-2" value="Ungerade Zahl" style="rounded=1;whiteSpace=wrap;html=1;" vertex="1" parent="1">
          <mxGeometry x="320" y="670" width="100" height="40" as="geometry" />
        </mxCell>
        <mxCell id="hQ93UAaIvLA_gx9WkFvK-5" style="edgeStyle=orthogonalEdgeStyle;rounded=0;orthogonalLoop=1;jettySize=auto;html=1;exitX=1;exitY=0.5;exitDx=0;exitDy=0;entryX=1;entryY=0.5;entryDx=0;entryDy=0;" edge="1" parent="1" source="hQ93UAaIvLA_gx9WkFvK-3" target="7rZDa8M_wtfSVnTw2A_I-4">
          <mxGeometry relative="1" as="geometry" />
        </mxCell>
        <mxCell id="hQ93UAaIvLA_gx9WkFvK-3" value="Zahl ist nicht ganz" style="rounded=1;whiteSpace=wrap;html=1;" vertex="1" parent="1">
          <mxGeometry x="320" y="520" width="100" height="40" as="geometry" />
        </mxCell>
      </root>
    </mxGraphModel>
  </diagram>
</mxfile>
